<svg width="900" height="1200" viewBox="0 0 900 1200" fill="none" xmlns="http://www.w3.org/2000/svg">
  <rect width="900" height="1200" fill="#F8F8F6"/>
  <path d="M65 44C124 54 245 47 448 53C647 58 768 51 837 55" stroke="black" stroke-width="4" stroke-linecap="round"/>
  <path d="M63 49C55 224 56 920 72 1144" stroke="black" stroke-width="5" stroke-linecap="round"/>
  <path d="M834 56C849 300 841 933 830 1140" stroke="black" stroke-width="5" stroke-linecap="round"/>
  <path d="M77 1141C302 1136 581 1139 829 1143" stroke="black" stroke-width="4" stroke-linecap="round"/>
  <path d="M347 207C403 142 538 133 610 212C674 282 652 402 582 463" stroke="black" stroke-width="6" stroke-linecap="round"/>
  <path d="M353 220C287 284 275 389 329 462" stroke="black" stroke-width="6" stroke-linecap="round"/>
  <path d="M355 225C392 185 497 178 567 217C637 256 650 362 603 441C560 514 464 553 391 519C312 483 292 362 355 225Z" stroke="black" stroke-width="3"/>
  <path d="M392 434C439 424 482 420 530 426" stroke="black" stroke-width="4" stroke-linecap="round"/>
  <path d="M379 499C415 476 493 470 540 489" stroke="black" stroke-width="4" stroke-linecap="round"/>
  <path d="M429 542C455 560 488 557 516 543" stroke="black" stroke-width="4" stroke-linecap="round"/>
  <path d="M381 560C431 612 462 673 468 753" stroke="black" stroke-width="4" stroke-linecap="round"/>
  <path d="M545 553C517 613 505 673 507 761" stroke="black" stroke-width="4" stroke-linecap="round"/>
  <path d="M316 708C240 742 173 809 126 913" stroke="black" stroke-width="4" stroke-linecap="round"/>
  <path d="M577 707C648 742 726 831 782 980" stroke="black" stroke-width="4" stroke-linecap="round"/>
  <path d="M251 865C308 802 378 762 468 757C557 754 635 800 696 868" stroke="black" stroke-width="5" stroke-linecap="round"/>
  <path d="M312 1001C369 939 420 911 466 909C523 905 579 939 641 1004" stroke="black" stroke-width="4" stroke-linecap="round"/>
  <path d="M373 239C340 200 311 167 314 137" stroke="black" stroke-width="3" stroke-linecap="round"/>
  <path d="M410 180C374 135 359 105 391 86" stroke="black" stroke-width="3" stroke-linecap="round"/>
  <path d="M504 150C521 111 565 98 598 123" stroke="black" stroke-width="3" stroke-linecap="round"/>
  <path d="M572 181C615 156 658 169 688 210" stroke="black" stroke-width="3" stroke-linecap="round"/>
  <path d="M621 277C676 257 714 281 736 334" stroke="black" stroke-width="3" stroke-linecap="round"/>
  <path d="M331 356C368 335 406 336 438 355" stroke="black" stroke-width="4" stroke-linecap="round"/>
  <path d="M515 353C552 331 590 332 620 351" stroke="black" stroke-width="4" stroke-linecap="round"/>
  <path d="M645 609L665 620L644 630L651 654L633 641L615 655L621 632L600 620L623 614L632 592L641 613L665 609Z" fill="black"/>
  <path d="M224 143C323 224 261 416 107 557" stroke="black" stroke-width="2" stroke-linecap="round"/>
  <path d="M684 147C724 230 736 358 703 525" stroke="black" stroke-width="2" stroke-linecap="round"/>
  <path d="M192 670C301 742 371 852 462 1120" stroke="black" stroke-width="2" stroke-linecap="round"/>
  <path d="M694 700C620 789 580 846 513 1127" stroke="black" stroke-width="2" stroke-linecap="round"/>
  <path d="M196 295C280 224 384 169 611 177" stroke="black" stroke-width="2" stroke-linecap="round" stroke-dasharray="2 14"/>
  <path d="M719 71V278" stroke="black" stroke-width="2" stroke-dasharray="4 16"/>
  <g fill="black">
    <circle cx="719" cy="137" r="8"/>
    <circle cx="711" cy="586" r="4"/>
    <circle cx="690" cy="604" r="3"/>
    <circle cx="171" cy="254" r="2.5"/>
    <circle cx="249" cy="1035" r="3"/>
    <circle cx="471" cy="892" r="4"/>
  </g>
</svg>
